<?xml version="1.0" standalone="no"?>
<!DOCTYPE svg PUBLIC "-//W3C//DTD SVG 20010904//EN"
 "http://www.w3.org/TR/2001/REC-SVG-20010904/DTD/svg10.dtd">
<svg version="1.0" xmlns="http://www.w3.org/2000/svg"
 width="500.000000pt" height="500.000000pt" viewBox="0 0 500.000000 500.000000"
 preserveAspectRatio="xMidYMid meet">
<metadata>
Created by potrace 1.14, written by Peter Selinger 2001-2017
</metadata>
<g transform="translate(0.000000,500.000000) scale(0.100000,-0.100000)"
fill="#000000" stroke="none">
<path d="M2596 2577 c-26 -171 -51 -324 -53 -339 l-5 -28 65 0 65 0 7 60 c5
43 14 70 32 90 14 17 28 30 32 30 4 0 27 -40 51 -90 l44 -90 77 0 78 0 -75
131 c-41 72 -74 135 -74 138 0 4 45 47 99 96 l100 90 -75 3 -76 3 -84 -77
c-60 -55 -84 -71 -84 -57 0 10 11 88 25 173 14 85 25 161 25 168 0 8 -19 12
-62 12 l-63 0 -49 -313z"/>
<path d="M2429 2851 c-49 -50 -29 -111 38 -111 60 0 98 85 55 123 -27 25 -60
21 -93 -12z"/>
<path d="M3917 2860 c-55 -43 -38 -120 26 -120 54 0 98 61 75 103 -22 43 -60
49 -101 17z"/>
<path d="M3210 2549 c-102 -177 -186 -325 -188 -330 -2 -5 30 -9 72 -9 l75 0
41 70 41 71 142 -3 141 -3 16 -65 16 -65 77 -3 c42 -2 77 -1 77 2 0 7 -138
537 -156 604 l-15 52 -77 0 -77 0 -185 -321z m263 28 l25 -97 -84 0 c-46 0
-84 3 -84 6 0 10 111 196 115 192 2 -2 14 -47 28 -101z"/>
<path d="M961 2679 c-24 -5 -54 -15 -66 -23 -20 -13 -24 -13 -29 -1 -4 11 -21
15 -60 15 -54 0 -55 0 -61 -32 -8 -47 -95 -599 -95 -604 0 -2 29 -4 64 -4 l63
0 18 109 17 110 29 -21 c44 -33 132 -36 197 -8 67 29 135 103 157 171 26 79
17 168 -22 216 -53 66 -121 90 -212 72z m88 -135 c41 -34 49 -79 23 -138 -33
-74 -113 -111 -176 -81 -109 52 -43 245 85 245 26 0 47 -8 68 -26z"/>
<path d="M1473 2680 c-53 -11 -75 -23 -125 -68 -76 -69 -116 -193 -88 -276 16
-48 66 -105 107 -122 59 -25 162 -13 204 22 22 19 29 17 29 -6 0 -19 5 -21 57
-18 l57 3 36 228 36 227 -57 0 c-48 0 -59 -3 -64 -19 -6 -19 -7 -19 -42 5 -20
13 -43 24 -52 24 -9 0 -25 2 -36 4 -11 2 -39 0 -62 -4z m106 -125 c34 -17 41
-32 41 -93 0 -85 -55 -144 -136 -146 -39 -1 -50 3 -75 32 -92 103 46 272 170
207z"/>
<path d="M4285 2668 c-11 -6 -32 -22 -47 -36 l-28 -26 0 32 0 32 -60 0 c-33 0
-60 -4 -60 -8 0 -11 -59 -389 -66 -424 l-6 -28 65 0 65 0 12 73 c6 39 16 100
22 135 7 40 19 73 34 91 31 37 97 63 147 59 39 -3 40 -2 53 42 8 25 14 51 14
58 0 15 -116 16 -145 0z"/>
<path d="M1865 2638 c-11 -64 -65 -413 -65 -420 0 -5 29 -8 63 -8 l64 0 22
143 c12 78 29 151 36 163 31 48 111 55 139 11 13 -20 13 -36 -4 -142 -11 -66
-22 -132 -24 -147 l-5 -28 64 0 c75 0 65 -18 96 185 l22 151 -20 45 c-15 33
-30 50 -56 62 -44 21 -116 22 -164 2 -33 -14 -38 -14 -45 0 -6 10 -25 15 -63
15 -53 0 -54 -1 -60 -32z"/>
<path d="M2349 2440 l-35 -230 63 0 c57 0 63 2 68 23 8 34 65 406 65 422 0 12
-14 15 -63 15 l-62 0 -36 -230z"/>
<path d="M3865 2648 c-8 -35 -65 -407 -65 -423 0 -12 14 -15 63 -15 l62 0 23
148 c12 81 29 184 36 230 l13 82 -63 0 c-58 0 -64 -2 -69 -22z"/>
</g>
</svg>
